<?xml version="1.0" encoding="utf-8"?>
<!-- Generator: Adobe Illustrator 27.0.0, SVG Export Plug-In . SVG Version: 6.00 Build 0)  -->
<svg version="1.1" id="Layer_1" xmlns="http://www.w3.org/2000/svg" xmlns:xlink="http://www.w3.org/1999/xlink" x="0px" y="0px"
	 viewBox="0 0 238.73 63.72" style="enable-background:new 0 0 238.73 63.72;" xml:space="preserve">
<style type="text/css">
	.st0{fill:#383838;}
</style>
<g>
	<path class="st0" d="M216.82,37.27h-12.09c-1.59,0-2.88-1.29-2.88-2.88c0-0.05,0-0.1,0-0.15c0-0.05,0-0.1,0-0.15V13.91
		c0-1.59,1.29-2.88,2.88-2.88h12.09c7.24,0,13.12,5.89,13.12,13.12C229.94,31.38,224.05,37.27,216.82,37.27z M207.62,31.5h9.2
		c4.06,0,7.36-3.3,7.36-7.36s-3.3-7.36-7.36-7.36h-9.2V31.5z"/>
</g>
<g>
	<path class="st0" d="M115.27,37.28c-1.1,0-2.14-0.65-2.58-1.74l-7.01-17.17l-21.9,18.24c-0.68,0.57-1.6,0.78-2.46,0.56
		c-0.86-0.22-1.57-0.83-1.91-1.65l-7.01-17.15L50.5,36.61c-0.68,0.57-1.6,0.78-2.46,0.56c-0.86-0.22-1.57-0.83-1.91-1.65
		l-7.01-17.15l-21.9,18.24c-1.18,0.99-2.94,0.82-3.93-0.36c-0.99-1.18-0.83-2.94,0.36-3.93l24.83-20.67
		c0.68-0.57,1.6-0.78,2.46-0.56c0.86,0.22,1.57,0.83,1.91,1.65l7.01,17.15l21.9-18.24c0.68-0.57,1.6-0.78,2.46-0.56
		c0.86,0.22,1.57,0.83,1.91,1.65l7.01,17.15l21.9-18.24c0.68-0.57,1.6-0.78,2.46-0.56c0.86,0.22,1.57,0.83,1.91,1.65l8.45,20.7
		c0.58,1.43-0.1,3.05-1.53,3.64C115.98,37.21,115.63,37.28,115.27,37.28z"/>
</g>
<g>
	<path class="st0" d="M194.09,37.37c-1.14,0-2.21-0.68-2.67-1.79l-6.96-17.05l-21.67,18.04c-0.39,0.37-0.87,0.63-1.42,0.73
		c-1.35,0.27-2.7-0.45-3.22-1.73l-8.45-20.7c-0.6-1.47,0.11-3.16,1.58-3.76c1.47-0.6,3.16,0.11,3.76,1.58l6.95,17.03l21.81-18.16
		c0.71-0.59,1.65-0.8,2.54-0.58c0.89,0.22,1.62,0.86,1.97,1.71l8.45,20.7c0.6,1.47-0.11,3.16-1.58,3.76
		C194.82,37.3,194.45,37.37,194.09,37.37z"/>
</g>
<g>
	<path class="st0" d="M133.76,37.71c-7.31,0-13.26-6.13-13.26-13.67c0-7.54,5.95-13.67,13.26-13.67c7.31,0,13.26,6.13,13.26,13.67
		C147.02,31.58,141.07,37.71,133.76,37.71z M133.76,16.07c-4.18,0-7.58,3.58-7.58,7.98s3.4,7.98,7.58,7.98
		c4.18,0,7.58-3.58,7.58-7.98S137.93,16.07,133.76,16.07z"/>
</g>
<g>
	<path class="st0" d="M59.12,56.31c-1.06,0-2.09-0.21-2.74-0.5l0.47-0.98c0.52,0.24,1.37,0.46,2.22,0.46c1.45,0,2.47-0.6,2.47-1.65
		c0-0.96-1.01-1.4-2.08-1.8c-1.42-0.52-2.98-1.18-2.98-2.74c0-1.59,1.43-2.57,3.51-2.57c1.04,0,1.95,0.22,2.49,0.5l-0.46,0.93
		c-0.44-0.21-1.21-0.45-1.98-0.45c-1.28,0-2.19,0.56-2.19,1.54c0,0.95,1.12,1.42,2.2,1.82c1.34,0.5,2.87,1.13,2.87,2.72
		C62.93,55.25,61.39,56.31,59.12,56.31z"/>
	<path class="st0" d="M85.59,47.63v8.53h-1.35v-8.53H81.4v-0.97h7.02v0.97H85.59z"/>
	<path class="st0" d="M111.21,56.3c-2.08,0-3.7-1.06-3.7-2.85v-6.79h1.37v6.79c0,1.17,1.04,1.86,2.33,1.86
		c1.29,0,2.33-0.7,2.33-1.86v-6.79h1.37v6.79C114.91,55.23,113.29,56.3,111.21,56.3z"/>
	<path class="st0" d="M137.68,56.31c-1.21,0-2.35-0.22-2.96-0.5v-8.79c0.69-0.29,1.78-0.5,2.96-0.5c2.85,0,4.93,1.63,4.93,4.9
		C142.61,54.68,140.53,56.31,137.68,56.31z M137.74,47.49c-0.65,0-1.29,0.08-1.65,0.22v7.4c0.3,0.13,0.95,0.22,1.65,0.22
		c1.94,0,3.5-1.18,3.5-3.92C141.24,48.67,139.68,47.49,137.74,47.49z"/>
	<path class="st0" d="M162.09,56.17v-9.5h1.35v9.5H162.09z"/>
	<path class="st0" d="M187.3,56.31c-2.91,0-4.36-2.19-4.36-4.9c0-2.7,1.45-4.9,4.36-4.9s4.36,2.19,4.36,4.9
		C191.66,54.12,190.21,56.31,187.3,56.31z M187.3,47.53c-1.98,0-3.01,1.69-3.01,3.89c0,2.19,1.02,3.88,3.01,3.88
		s3.01-1.69,3.01-3.88C190.31,49.22,189.28,47.53,187.3,47.53z"/>
</g>
</svg>
