<?xml version="1.0" encoding="utf-8"?>
<!-- Generator: Adobe Illustrator 26.2.1, SVG Export Plug-In . SVG Version: 6.00 Build 0)  -->
<svg version="1.1"
	 id="svg41" xmlns:cc="http://creativecommons.org/ns#" xmlns:dc="http://purl.org/dc/elements/1.1/" xmlns:inkscape="http://www.inkscape.org/namespaces/inkscape" xmlns:rdf="http://www.w3.org/1999/02/22-rdf-syntax-ns#" xmlns:sodipodi="http://sodipodi.sourceforge.net/DTD/sodipodi-0.dtd" xmlns:svg="http://www.w3.org/2000/svg"
	 xmlns="http://www.w3.org/2000/svg" xmlns:xlink="http://www.w3.org/1999/xlink" x="0px" y="0px" viewBox="0 0 34 34"
	 style="enable-background:new 0 0 34 34;" xml:space="preserve">
<style type="text/css">
	.st0{fill:#7C7C7C;}
	.st1{fill:none;stroke:#7C7C7C;stroke-width:1.8425;stroke-miterlimit:10;}
</style>
<sodipodi:namedview  bordercolor="#666666" borderopacity="1" gridtolerance="10" guidetolerance="10" id="namedview43" inkscape:current-layer="svg41" inkscape:cx="208.8384" inkscape:cy="563.69153" inkscape:pageopacity="0" inkscape:pageshadow="2" inkscape:window-height="837" inkscape:window-maximized="1" inkscape:window-width="1600" inkscape:window-x="-8" inkscape:window-y="-8" inkscape:zoom="0.44240321" objecttolerance="10" pagecolor="#ffffff" showgrid="false">
	</sodipodi:namedview>
<g>
	<g>
		<path class="st0" d="M11.9,29.5c-0.1-1.1-0.2-2.7,0-3.9c0.2-1.1,1.6-6.7,1.6-6.7s-0.4-0.8-0.4-2c0-1.9,1.1-3.3,2.4-3.3
			c1.2,0,1.7,0.9,1.7,1.9c0,1.2-0.7,2.9-1.1,4.5c-0.3,1.3,0.7,2.4,2,2.4c2.4,0,4.2-2.5,4.2-6.2c0-3.2-2.3-5.5-5.6-5.5
			c-3.8,0-6.1,2.9-6.1,5.8c0,1.2,0.4,2.4,1,3.1c0.1,0.1,0.1,0.3,0.1,0.4c-0.1,0.4-0.3,1.3-0.4,1.5c-0.1,0.2-0.2,0.3-0.5,0.2
			c-1.7-0.8-2.7-3.2-2.7-5.2c0-4.2,3.1-8.1,8.9-8.1c4.7,0,8.3,3.3,8.3,7.8c0,4.6-2.9,8.4-7,8.4c-1.4,0-2.6-0.7-3.1-1.6
			c0,0-0.7,2.6-0.8,3.2c-0.3,1.2-1.1,2.6-1.7,3.5"/>
	</g>
</g>
<ellipse class="st1" cx="16.7" cy="17" rx="13.4" ry="13.5"/>
</svg>
