<?xml version="1.0" encoding="utf-8"?>
<!-- Generator: Adobe Illustrator 27.0.0, SVG Export Plug-In . SVG Version: 6.00 Build 0)  -->
<svg version="1.1"
	 id="svg41" xmlns:inkscape="http://www.inkscape.org/namespaces/inkscape" xmlns:dc="http://purl.org/dc/elements/1.1/" xmlns:sodipodi="http://sodipodi.sourceforge.net/DTD/sodipodi-0.dtd" xmlns:rdf="http://www.w3.org/1999/02/22-rdf-syntax-ns#" xmlns:svg="http://www.w3.org/2000/svg" xmlns:cc="http://creativecommons.org/ns#" inkscape:version="0.92.2 (5c3e80d, 2017-08-06)" sodipodi:docname="whatsapp-logo.svg"
	 xmlns="http://www.w3.org/2000/svg" xmlns:xlink="http://www.w3.org/1999/xlink" x="0px" y="0px" viewBox="0 0 34 34"
	 style="enable-background:new 0 0 34 34;" xml:space="preserve">
<style type="text/css">
	.st0{fill:none;stroke:#000000;stroke-width:1.4173;stroke-miterlimit:10;}
</style>
<sodipodi:namedview  bordercolor="#666666" borderopacity="1" gridtolerance="10" guidetolerance="10" id="namedview43" inkscape:current-layer="svg41" inkscape:cx="208.8384" inkscape:cy="563.69153" inkscape:pageopacity="0" inkscape:pageshadow="2" inkscape:window-height="837" inkscape:window-maximized="1" inkscape:window-width="1600" inkscape:window-x="-8" inkscape:window-y="-8" inkscape:zoom="0.44240321" objecttolerance="10" pagecolor="#ffffff" showgrid="false">
	</sodipodi:namedview>
<path class="st0" d="M9.21,29.09l0.48,0.24c2.18,1.33,4.71,1.93,7.25,1.93l0,0c7.86,0,14.26-6.41,14.26-14.26
	c0-3.75-1.45-7.37-4.23-10.03c-2.66-2.66-6.28-4.23-10.03-4.23C9.21,2.98,2.8,9.39,2.8,17.12c0,2.66,0.73,5.32,2.18,7.61l0.36,0.48
	l-1.45,5.2L9.21,29.09z"/>
<g id="g37">
	<path id="path35" inkscape:connector-curvature="0" d="M13.17,9.93c-0.36-0.73-0.6-0.73-0.97-0.73c-0.24,0-0.48,0-0.85,0
		c-0.24,0-0.73,0.12-1.09,0.48s-1.45,1.45-1.45,3.63s1.57,4.11,1.82,4.48c0.24,0.24,2.9,4.72,7.26,6.41
		c3.63,1.45,4.36,1.09,5.08,1.09c0.85-0.12,2.54-1.09,2.9-2.06c0.36-0.97,0.36-1.82,0.24-2.06c-0.12-0.24-0.36-0.24-0.85-0.48
		c-0.48-0.24-2.54-1.21-2.9-1.33s-0.73-0.24-0.97,0.24c-0.24,0.48-1.09,1.33-1.33,1.69c-0.24,0.24-0.48,0.36-0.97,0.12
		c-0.48-0.24-1.82-0.73-3.51-2.18c-1.33-1.09-2.18-2.54-2.42-2.9c-0.24-0.48,0-0.61,0.24-0.85c0.24-0.24,0.48-0.48,0.61-0.73
		c0.24-0.24,0.24-0.48,0.48-0.73c0.12-0.24,0.12-0.48,0-0.73C14.38,12.95,13.54,10.77,13.17,9.93L13.17,9.93z"/>
</g>
</svg>
