<?xml version="1.0" encoding="utf-8"?>
<!-- Generator: Adobe Illustrator 27.0.0, SVG Export Plug-In . SVG Version: 6.00 Build 0)  -->
<svg version="1.1"
	 id="svg41" xmlns:inkscape="http://www.inkscape.org/namespaces/inkscape" xmlns:dc="http://purl.org/dc/elements/1.1/" xmlns:sodipodi="http://sodipodi.sourceforge.net/DTD/sodipodi-0.dtd" xmlns:rdf="http://www.w3.org/1999/02/22-rdf-syntax-ns#" xmlns:svg="http://www.w3.org/2000/svg" xmlns:cc="http://creativecommons.org/ns#" inkscape:version="0.92.2 (5c3e80d, 2017-08-06)" sodipodi:docname="whatsapp-logo.svg"
	 xmlns="http://www.w3.org/2000/svg" xmlns:xlink="http://www.w3.org/1999/xlink" x="0px" y="0px" viewBox="0 0 34 34"
	 style="enable-background:new 0 0 34 34;" xml:space="preserve">
<style type="text/css">
	.st0{fill:none;stroke:#000000;stroke-width:1.8676;stroke-miterlimit:10;}
	.st1{fill:none;stroke:#000000;stroke-width:1.7577;stroke-miterlimit:10;}
</style>
<sodipodi:namedview  bordercolor="#666666" borderopacity="1" gridtolerance="10" guidetolerance="10" id="namedview43" inkscape:current-layer="svg41" inkscape:cx="208.8384" inkscape:cy="563.69153" inkscape:pageopacity="0" inkscape:pageshadow="2" inkscape:window-height="837" inkscape:window-maximized="1" inkscape:window-width="1600" inkscape:window-x="-8" inkscape:window-y="-8" inkscape:zoom="0.44240321" objecttolerance="10" pagecolor="#ffffff" showgrid="false">
	</sodipodi:namedview>
<g id="background_1_" transform="translate(286.83199,-245.73885)">
</g>
<g>
	<path d="M17.29,32.79c-8.22,0-14.91-6.69-14.91-14.91S9.07,2.97,17.29,2.97S32.2,9.66,32.2,17.88S25.51,32.79,17.29,32.79z
		 M17.29,4.39C9.85,4.39,3.8,10.44,3.8,17.88s6.05,13.49,13.49,13.49c7.44,0,13.49-6.05,13.49-13.49S24.73,4.39,17.29,4.39z"/>
</g>
<g>
	<path class="st0" d="M22.09,25.34h-9.6c-1.68,0-3.06-1.38-3.06-3.06v-8.8c0-1.68,1.38-3.06,3.06-3.06h9.6
		c1.68,0,3.06,1.38,3.06,3.06v8.8C25.15,23.96,23.77,25.34,22.09,25.34z"/>
	<circle class="st1" cx="17.29" cy="19.14" r="3.54"/>
	<circle cx="21.74" cy="13.91" r="1.38"/>
</g>
</svg>
