<?xml version="1.0" encoding="utf-8"?>
<!-- Generator: Adobe Illustrator 27.0.0, SVG Export Plug-In . SVG Version: 6.00 Build 0)  -->
<svg version="1.1"
	 id="svg41" xmlns:inkscape="http://www.inkscape.org/namespaces/inkscape" xmlns:dc="http://purl.org/dc/elements/1.1/" xmlns:svg="http://www.w3.org/2000/svg" xmlns:cc="http://creativecommons.org/ns#" xmlns:rdf="http://www.w3.org/1999/02/22-rdf-syntax-ns#" xmlns:sodipodi="http://sodipodi.sourceforge.net/DTD/sodipodi-0.dtd" inkscape:version="0.92.2 (5c3e80d, 2017-08-06)" sodipodi:docname="whatsapp-logo.svg"
	 xmlns="http://www.w3.org/2000/svg" xmlns:xlink="http://www.w3.org/1999/xlink" x="0px" y="0px" viewBox="0 0 34 34"
	 style="enable-background:new 0 0 34 34;" xml:space="preserve">
<sodipodi:namedview  bordercolor="#666666" borderopacity="1" gridtolerance="10" guidetolerance="10" id="namedview43" inkscape:current-layer="svg41" inkscape:cx="208.8384" inkscape:cy="563.69153" inkscape:pageopacity="0" inkscape:pageshadow="2" inkscape:window-height="837" inkscape:window-maximized="1" inkscape:window-width="1600" inkscape:window-x="-8" inkscape:window-y="-8" inkscape:zoom="0.44240321" objecttolerance="10" pagecolor="#ffffff" showgrid="false">
	</sodipodi:namedview>
<g id="background_1_" transform="translate(286.83199,-245.73885)">
</g>
<g>
	<path d="M17,30.87c-8.22,0-14.91-6.69-14.91-14.91S8.78,1.05,17,1.05s14.91,6.69,14.91,14.91S25.22,30.87,17,30.87z M17,2.47
		c-7.44,0-13.49,6.05-13.49,13.49S9.56,29.45,17,29.45s13.49-6.05,13.49-13.49S24.44,2.47,17,2.47z"/>
</g>
<path d="M19.68,6.72c-1.24,0-1.95,0-3.19,0.71s-1.86,1.86-1.86,3.19c0,0.44,0,3.1,0,3.9v0.27h-3.37v4.07h3.63v8.68
	c0.97,0.27,1.68,0.27,2.66,0.27c0.44,0,1.24,0,1.68-0.27v-8.68h3.63c0-1.68,0-2.66,0.27-4.07c-0.27,0-0.44,0-0.97,0
	c-0.97,0-3.1,0-3.1,0s0-1.95,0-2.92c0-1.24,0.97-1.42,1.68-1.42c0.44,0,2.39,0,2.39,0V6.72C22.87,6.72,20.21,6.72,19.68,6.72z"/>
<g id="background_00000028311455075050466180000015677144297176587954_" transform="translate(286.83199,-245.73885)">
</g>
</svg>
